<?xml version="1.0" encoding="iso-8859-1"?>
<!-- Uploaded to: SVG Repo, www.svgrepo.com, Generator: SVG Repo Mixer Tools -->
<svg height="800px" width="800px" version="1.1" id="Layer_1" xmlns="http://www.w3.org/2000/svg" xmlns:xlink="http://www.w3.org/1999/xlink" 
	 viewBox="0 0 512 512" xml:space="preserve">
<path d="M256,0C114.616,0,0,114.616,0,256s114.616,256,256,256s256-114.616,256-256C512,114.616,397.392,0,256,0z"/>
<polygon style="fill:#E21B1B;" points="191.264,162.36 354.816,256.792 191.264,351.216 "/>
<path style="fill:#999999;" d="M256.008,436.144c-99.328,0-180.144-80.816-180.144-180.144S156.68,75.864,256.008,75.864
	s180.136,80.816,180.136,180.144S355.336,436.144,256.008,436.144z M256.008,83.864c-94.92,0-172.144,77.216-172.144,172.144
	s77.216,172.144,172.144,172.144c94.912,0,172.136-77.216,172.136-172.144S350.92,83.864,256.008,83.864z"/>
<g style="opacity:0.2;">
	<polygon style="fill:#FFFFFF;" points="191.264,162.36 354.816,256.792 191.264,256.792 	"/>
</g>
</svg>